<svg width="14" height="15" viewBox="0 0 14 15" fill="none" xmlns="http://www.w3.org/2000/svg">
<path d="M8.002 0.384207C7.72668 0.136841 7.36962 0 6.9995 0C6.62938 0 6.27232 0.136841 5.997 0.384207L0.497 5.32621C0.340623 5.46683 0.215564 5.63877 0.129942 5.83086C0.0443201 6.02295 4.81578e-05 6.2309 0 6.44121V13.4962C0 13.894 0.158035 14.2756 0.43934 14.5569C0.720644 14.8382 1.10218 14.9962 1.5 14.9962H3.5C3.89782 14.9962 4.27936 14.8382 4.56066 14.5569C4.84196 14.2756 5 13.894 5 13.4962V9.49621C5 9.3636 5.05268 9.23642 5.14645 9.14265C5.24021 9.04889 5.36739 8.99621 5.5 8.99621H8.5C8.63261 8.99621 8.75979 9.04889 8.85355 9.14265C8.94732 9.23642 9 9.3636 9 9.49621V13.4962C9 13.894 9.15804 14.2756 9.43934 14.5569C9.72064 14.8382 10.1022 14.9962 10.5 14.9962H12.5C12.8978 14.9962 13.2794 14.8382 13.5607 14.5569C13.842 14.2756 14 13.894 14 13.4962V6.44121C14 6.2309 13.9557 6.02295 13.8701 5.83086C13.7844 5.63877 13.6594 5.46683 13.503 5.32621L8.003 0.384207H8.002Z" fill="#70a0ff"/>
</svg>
